<?xml version="1.0" encoding="UTF-8" standalone="no"?>
<!-- Uploaded to: SVG Repo, www.svgrepo.com, Generator: SVG Repo Mixer Tools -->

<svg
   fill="#000000"
   height="800px"
   width="800px"
   version="1.1"
   id="Capa_1"
   viewBox="0 0 352.804 352.804"
   xml:space="preserve"
   sodipodi:docname="copy.svg"
   inkscape:version="1.4.2 (f4327f4, 2025-05-13)"
   xmlns:inkscape="http://www.inkscape.org/namespaces/inkscape"
   xmlns:sodipodi="http://sodipodi.sourceforge.net/DTD/sodipodi-0.dtd"
   xmlns="http://www.w3.org/2000/svg"
   xmlns:svg="http://www.w3.org/2000/svg"><defs
   id="defs1" /><sodipodi:namedview
   id="namedview1"
   pagecolor="#000000"
   bordercolor="#000000"
   borderopacity="0.25"
   inkscape:showpageshadow="2"
   inkscape:pageopacity="0.0"
   inkscape:pagecheckerboard="0"
   inkscape:deskcolor="#d1d1d1"
   inkscape:zoom="1.00875"
   inkscape:cx="399.50434"
   inkscape:cy="400"
   inkscape:window-width="1920"
   inkscape:window-height="1009"
   inkscape:window-x="-8"
   inkscape:window-y="-8"
   inkscape:window-maximized="1"
   inkscape:current-layer="Capa_1" />

<g
   id="g2"
   style="display:inline;fill:#ffffff"
   inkscape:label="g1">
	<path
   d="M 318.54,57.282 H 270.888 V 15 c 0,-8.284 -6.716,-15 -15,-15 H 34.264 c -8.284,0 -15,6.716 -15,15 v 265.522 c 0,8.284 6.716,15 15,15 h 47.651 v 42.281 c 0,8.284 6.716,15 15,15 H 318.54 c 8.284,0 15,-6.716 15,-15 V 72.282 c 0,-8.284 -6.716,-15 -15,-15 z M 49.264,265.522 V 30 H 240.887 V 57.282 H 96.916 c -8.284,0 -15,6.716 -15,15 v 193.24 z M 303.54,322.804 H 111.916 V 87.282 H 303.54 Z"
   id="path2"
   style="display:inline;fill:#ffffff"
   inkscape:label="path1" />
</g></svg>
